<svg width="52" height="17" viewBox="0 0 52 17" fill="none" xmlns="http://www.w3.org/2000/svg">
<g id="menu_24px">
<g id="menu (1) 1" clip-path="url(#clip0_1_1695)">
<g id="Group">
<g id="Group_2">
<path id="Vector" d="M50.9165 0.137207H1.08337C0.485366 0.137207 0 0.608122 0 1.18832C0 1.76851 0.485366 2.23942 1.08337 2.23942H50.9166C51.5146 2.23942 52 1.76851 52 1.18832C52 0.608122 51.5145 0.137207 50.9165 0.137207Z" fill="white"/>
</g>
</g>
<g id="Group_3">
<g id="Group_4">
<path id="Vector_2" d="M50.9165 14.603H1.08337C0.485366 14.603 0 15.0739 0 15.6541C0 16.2343 0.485366 16.7052 1.08337 16.7052H50.9166C51.5146 16.7052 52 16.2343 52 15.6541C52 15.0739 51.5145 14.603 50.9165 14.603Z" fill="white"/>
</g>
</g>
</g>
</g>
<defs>
<clipPath id="clip0_1_1695">
<rect width="52" height="17" fill="white"/>
</clipPath>
</defs>
</svg>
